<svg width="24" height="24" viewBox="0 0 24 24" fill="none" xmlns="http://www.w3.org/2000/svg">
<g id="Icon/circle-triangle">
<g id="Vector">
<path d="M3 12.0005C3 13.1824 3.23279 14.3527 3.68508 15.4446C4.13738 16.5366 4.80031 17.5287 5.63604 18.3645C6.47177 19.2002 7.46392 19.8631 8.55585 20.3154C9.64778 20.7677 10.8181 21.0005 12 21.0005C13.1819 21.0005 14.3522 20.7677 15.4442 20.3154C16.5361 19.8631 17.5282 19.2002 18.364 18.3645C19.1997 17.5287 19.8626 16.5366 20.3149 15.4446C20.7672 14.3527 21 13.1824 21 12.0005C21 10.8186 20.7672 9.64827 20.3149 8.55634C19.8626 7.46441 19.1997 6.47225 18.364 5.63653C17.5282 4.8008 16.5361 4.13787 15.4442 3.68557C14.3522 3.23328 13.1819 3.00049 12 3.00049C10.8181 3.00049 9.64778 3.23328 8.55585 3.68557C7.46392 4.13787 6.47177 4.8008 5.63604 5.63653C4.80031 6.47225 4.13738 7.46441 3.68508 8.55634C3.23279 9.64827 3 10.8186 3 12.0005Z" stroke="#D5B25D" stroke-width="2" stroke-linecap="round" stroke-linejoin="round"/>
<path d="M12 20.0005L19 8.00049H5L12 20.0005Z" stroke="#D5B25D" stroke-width="2" stroke-linecap="round" stroke-linejoin="round"/>
</g>
</g>
</svg>
