<svg width="24" height="24" viewBox="0 0 24 24" fill="none" xmlns="http://www.w3.org/2000/svg">
<g id="Icon/link">
<path id="Union" fill-rule="evenodd" clip-rule="evenodd" d="M16.7205 2.9126C15.5176 2.9126 14.3639 3.39045 13.5134 4.24102L13.0134 4.74102C12.6228 5.13155 12.6228 5.76471 13.0134 6.15524C13.4039 6.54576 14.037 6.54576 14.4276 6.15524L14.9276 5.65524C15.4031 5.17973 16.048 4.9126 16.7205 4.9126C17.3929 4.9126 18.0378 5.17973 18.5134 5.65524C18.9889 6.13074 19.256 6.77567 19.256 7.44813C19.256 8.1206 18.9889 8.76552 18.5134 9.24102L14.5134 13.241L14.5133 13.241L14.5062 13.2483C14.2734 13.4858 13.9956 13.6746 13.6889 13.8034C13.3823 13.9323 13.0531 13.9986 12.7205 13.9986C12.3879 13.9986 12.0586 13.9323 11.752 13.8034C11.4454 13.6746 11.1675 13.4858 10.9347 13.2483C10.5482 12.8538 9.91509 12.8473 9.5206 13.2338C9.12612 13.6204 9.11965 14.2535 9.50617 14.648C9.92516 15.0756 10.4253 15.4153 10.9772 15.6473C11.5291 15.8792 12.1218 15.9986 12.7205 15.9986C13.3191 15.9986 13.9118 15.8792 14.4637 15.6473C15.014 15.416 15.5127 15.0777 15.931 14.6518L19.9276 10.6552C20.7781 9.80466 21.256 8.65103 21.256 7.44813C21.256 6.24523 20.7781 5.0916 19.9276 4.24102C19.077 3.39045 17.9234 2.9126 16.7205 2.9126ZM11.7203 7.89764C11.1217 7.89764 10.529 8.0171 9.97708 8.24903C9.42681 8.48025 8.92805 8.81863 8.50984 9.24445L4.51324 13.241C3.66266 14.0916 3.18481 15.2453 3.18481 16.4482C3.18481 17.6511 3.66266 18.8047 4.51324 19.6553C5.36382 20.5058 6.51745 20.9837 7.72035 20.9837C8.92325 20.9837 10.0769 20.5058 10.9275 19.6553L11.4275 19.1553C11.818 18.7647 11.818 18.1316 11.4275 17.741C11.0369 17.3505 10.4038 17.3505 10.0132 17.741L9.51324 18.241C9.03774 18.7166 8.39281 18.9837 7.72035 18.9837C7.04788 18.9837 6.40296 18.7166 5.92746 18.241C5.45195 17.7655 5.18481 17.1206 5.18481 16.4482C5.18481 15.7757 5.45195 15.1308 5.92746 14.6553L9.92745 10.6553L9.92749 10.6553L9.93463 10.648C10.1674 10.4104 10.4452 10.2217 10.7519 10.0929C11.0585 9.96401 11.3878 9.89764 11.7203 9.89764C12.0529 9.89764 12.3822 9.96401 12.6888 10.0929C12.9955 10.2217 13.2733 10.4104 13.5061 10.648C13.8926 11.0425 14.5257 11.049 14.9202 10.6624C15.3147 10.2759 15.3212 9.64279 14.9346 9.2483C14.5156 8.82067 14.0155 8.48095 13.4636 8.24903C12.9117 8.0171 12.319 7.89764 11.7203 7.89764Z" fill="#D5B25D"/>
</g>
</svg>
