<svg width="160" height="34" viewBox="0 0 160 34" fill="none" xmlns="http://www.w3.org/2000/svg">
<g clip-path="url(#clip0_239_732)">
<path d="M0 9.646L14.0241 34.0002L28.0482 9.646H22.4386L14.0241 24.2172L5.74684 9.646H0Z" fill="#134B41"/>
<path d="M0 0L5.74684 9.64581H22.4386L28.0482 0L14.0241 4.82375L0 0Z" fill="#D5B25D"/>
<path d="M42.0649 8.43645L45.2216 8.41602L45.3209 23.1483L60.0532 23.049L60.0736 26.2057L42.1847 26.3254L42.0649 8.43645Z" fill="#0E0E0E"/>
<path d="M67.9259 17.2059L60.0999 8.31401L64.2786 8.28481L69.9934 14.7822L75.6206 8.20889L79.7993 8.17969L72.1047 17.1767L79.919 26.0686L75.7403 26.0978L70.0255 19.6005L64.3983 26.1738L60.2196 26.203L67.9259 17.2059Z" fill="#0E0E0E"/>
<path d="M90.4697 8.10964L100.991 8.03955L101.011 11.1963L90.4901 11.2663C89.909 11.2693 89.4126 11.4795 89.0067 11.8913C88.5978 12.3059 88.3963 12.8024 88.4022 13.3835L88.4518 20.751C88.4547 21.3322 88.665 21.8286 89.0767 22.2345C89.4914 22.6433 89.9878 22.8448 90.5689 22.839L97.9336 22.7893C98.5147 22.7864 99.0111 22.5761 99.417 22.1644C99.823 21.7527 100.027 21.2533 100.022 20.6722L100.007 18.5668L93.6935 18.6106L93.6731 15.4539L103.143 15.3896L103.178 20.6518C103.187 22.1031 102.682 23.3471 101.663 24.3808C100.641 25.4146 99.4054 25.9373 97.954 25.946L90.5894 25.9957C89.1381 26.0044 87.8941 25.4992 86.8603 24.4801C85.8266 23.458 85.3039 22.2228 85.2951 20.7715L85.2455 13.4039C85.2367 11.9526 85.7419 10.7086 86.761 9.67485C87.7831 8.64111 89.0183 8.1184 90.4697 8.10672V8.10964Z" fill="#0E0E0E"/>
<path d="M109.532 25.8699C108.081 25.8786 106.837 25.3734 105.803 24.3543C104.77 23.3322 104.247 22.097 104.235 20.6457L104.186 13.2781C104.177 11.8268 104.682 10.5828 105.701 9.54904C106.72 8.5153 107.959 7.99259 109.41 7.98091L116.775 7.93126C118.226 7.9225 119.47 8.42769 120.504 9.44683C121.537 10.466 122.06 11.7041 122.069 13.1554L122.118 20.523C122.127 21.9744 121.622 23.2184 120.603 24.2521C119.581 25.2858 118.346 25.8085 116.894 25.8173L109.53 25.8669L109.532 25.8699ZM107.392 20.6223C107.395 21.2034 107.605 21.6999 108.017 22.1058C108.429 22.5146 108.928 22.7161 109.509 22.7102L116.874 22.6606C117.455 22.6577 117.951 22.4474 118.357 22.0357C118.766 21.621 118.968 21.1246 118.962 20.5435L118.912 13.1759C118.909 12.5948 118.699 12.0983 118.287 11.6924C117.872 11.2836 117.376 11.0821 116.795 11.088L109.43 11.1376C108.849 11.1405 108.353 11.3508 107.947 11.7625C107.538 12.1772 107.337 12.6736 107.342 13.2547L107.392 20.6223Z" fill="#0E0E0E"/>
<path d="M123.091 7.88763L126.248 7.86719L126.347 22.5994L141.079 22.5002L141.1 25.6569L123.211 25.7766L123.091 7.88763Z" fill="#0E0E0E"/>
<path d="M160.005 20.2691C160.013 21.7204 159.508 22.9644 158.489 23.9982C157.467 25.0319 156.232 25.5546 154.78 25.5634L142.154 25.6481L142.034 7.75912L154.661 7.67443C156.112 7.66567 157.356 8.17086 158.39 9.19C159.424 10.2121 159.946 11.4473 159.958 12.8986L160.008 20.2662L160.005 20.2691ZM154.757 22.4096C155.338 22.4067 155.835 22.1964 156.241 21.7847C156.649 21.37 156.851 20.8736 156.845 20.2925L156.795 12.9249C156.792 12.3438 156.582 11.8473 156.17 11.4414C155.759 11.0355 155.259 10.8311 154.678 10.837L145.208 10.9012L145.287 22.4768L154.757 22.4125V22.4096Z" fill="#0E0E0E"/>
</g>
<defs>
<clipPath id="clip0_239_732">
<rect width="160.008" height="34" fill="white"/>
</clipPath>
</defs>
</svg>
